<?xml version="1.0" encoding="UTF-8"?>
<!DOCTYPE svg PUBLIC "-//W3C//DTD SVG 1.1//EN" "http://www.w3.org/Graphics/SVG/1.1/DTD/svg11.dtd">
<svg version="1.1" xmlns="http://www.w3.org/2000/svg" xmlns:xlink="http://www.w3.org/1999/xlink" x="0" y="0" width="71.925" height="200" viewBox="0, 0, 71.925, 200">
  <g id="Layer_1" transform="translate(-233.605, -93.8)">
    <path d="M277.187,199.415 C277.187,198.345 277.455,197.009 277.455,195.939 C278.524,180.431 288.15,167.597 295.102,156.634 C295.904,155.297 296.171,153.96 296.171,152.624 C296.171,149.95 295.102,147.543 295.102,147.543 C295.102,147.543 255.53,100.484 250.984,95.939 C249.647,94.602 247.776,93.8 246.171,93.8 C243.498,93.8 240.824,95.672 240.824,99.415 C240.824,100.752 241.091,102.089 241.893,103.693 C242.963,106.634 258.203,120.271 258.203,139.522 C258.203,149.415 254.193,160.912 242.161,173.479 C239.487,176.153 238.417,179.094 238.417,181.233 C238.417,184.976 241.091,187.65 241.091,187.65 L254.193,203.693 C258.471,209.041 262.214,214.121 265.69,219.736 C266.225,220.805 267.294,222.944 267.294,223.479 C267.294,223.747 267.294,224.281 267.027,224.549 C266.492,225.618 265.423,225.886 264.086,225.886 C263.016,225.886 260.877,225.351 259.808,225.083 C258.471,225.083 256.867,224.281 255.53,224.281 C244.032,224.281 233.605,235.779 233.605,249.95 C233.605,263.319 245.102,276.42 264.621,291.394 C266.76,292.998 269.433,293.8 271.572,293.8 C273.444,293.8 275.316,293.265 275.583,292.196 C275.851,291.394 276.118,290.859 276.118,290.324 C276.118,287.918 273.979,285.779 271.84,283.907 C268.364,283.907 265.423,276.688 264.888,274.281 C264.086,272.142 263.818,269.736 263.818,267.329 C263.818,256.367 269.433,247.811 280.663,247.811 C288.417,247.811 297.241,250.752 301.519,252.356 C301.786,252.356 302.054,252.624 302.321,252.624 C303.123,252.891 303.658,252.891 304.193,252.891 C304.995,252.891 305.53,252.624 305.53,251.821 C305.53,248.613 298.578,239.789 295.637,236.581 C285.476,224.281 277.187,214.388 277.187,199.415 z" fill="#3E3579"/>
  </g>
</svg>
